REM DIRINDEX 1\2\4\8,1\2\4\9,1\2\4\10,1\2\5\11,1\2\5\12,1\2\5\13,1\2\5\14,1\2\5\15,1\3\6\16,1\3\6\17,1\3\6\18,1\3\7\19,1\3\7\20,1\3\7\21,1\3\7\22,1\3\7\23
REM DIRNAME "folder01","folder02","folder03","folder04","folder05","folder06","folder07","folder08","folder09","folder10","folder11","folder12","folder13","folder14","folder15","folder16","folder17","folder18","folder19","folder20","folder21","folder22","folder23"
TITLE ""
FILE "LR_black_phrase_E_C10.mp3" MP3
  TRACK 01 AUDIO
    TITLE "0:"
    INDEX 01 00:00:00
  TRACK 02 AUDIO
    TITLE "16:cjc171_10341"
    INDEX 01 00:00:14
  TRACK 03 AUDIO
    TITLE "0:"
    INDEX 01 00:01:41
  TRACK 04 AUDIO
    TITLE "17:cjc171_10342"
    INDEX 01 00:01:70
  TRACK 05 AUDIO
    TITLE "0:"
    INDEX 01 00:03:67
  TRACK 06 AUDIO
    TITLE "18:cjc171_10343"
    INDEX 01 00:04:47
  TRACK 07 AUDIO
    TITLE "0:"
    INDEX 01 00:06:46
  TRACK 08 AUDIO
    TITLE "16:cjc171_10344"
    INDEX 01 00:07:51
  TRACK 09 AUDIO
    TITLE "0:"
    INDEX 01 00:08:63
  TRACK 10 AUDIO
    TITLE "17:cjc171_10345"
    INDEX 01 00:09:17
  TRACK 11 AUDIO
    TITLE "0:"
    INDEX 01 00:11:08
  TRACK 12 AUDIO
    TITLE "18:cjc171_10346"
    INDEX 01 00:11:61
  TRACK 13 AUDIO
    TITLE "0:"
    INDEX 01 00:13:52
  TRACK 14 AUDIO
    TITLE "16:cjc171_10347"
    INDEX 01 00:14:59
  TRACK 15 AUDIO
    TITLE "0:"
    INDEX 01 00:16:07
  TRACK 16 AUDIO
    TITLE "17:cjc171_10348"
    INDEX 01 00:16:27
  TRACK 17 AUDIO
    TITLE "0:"
    INDEX 01 00:18:47
  TRACK 18 AUDIO
    TITLE "18:cjc171_10349"
    INDEX 01 00:19:19
  TRACK 19 AUDIO
    TITLE "0:"
    INDEX 01 00:21:38
  TRACK 20 AUDIO
    TITLE "16:cjc171_10350"
    INDEX 01 00:22:31
  TRACK 21 AUDIO
    TITLE "0:"
    INDEX 01 00:23:51
  TRACK 22 AUDIO
    TITLE "17:cjc171_10351"
    INDEX 01 00:23:72
  TRACK 23 AUDIO
    TITLE "0:"
    INDEX 01 00:26:10
  TRACK 24 AUDIO
    TITLE "18:cjc171_10352"
    INDEX 01 00:26:59
  TRACK 25 AUDIO
    TITLE "0:"
    INDEX 01 00:28:71
  TRACK 26 AUDIO
    TITLE "16:cjc171_10353"
    INDEX 01 00:30:02
  TRACK 27 AUDIO
    TITLE "0:"
    INDEX 01 00:31:25
  TRACK 28 AUDIO
    TITLE "17:cjc171_10354"
    INDEX 01 00:31:56
  TRACK 29 AUDIO
    TITLE "0:"
    INDEX 01 00:33:65
  TRACK 30 AUDIO
    TITLE "18:cjc171_10355"
    INDEX 01 00:34:46
  TRACK 31 AUDIO
    TITLE "0:"
    INDEX 01 00:36:55
  TRACK 32 AUDIO
    TITLE "16:cjc171_10356"
    INDEX 01 00:37:58
  TRACK 33 AUDIO
    TITLE "0:"
    INDEX 01 00:38:64
  TRACK 34 AUDIO
    TITLE "17:cjc171_10357"
    INDEX 01 00:39:16
  TRACK 35 AUDIO
    TITLE "0:"
    INDEX 01 00:41:09
  TRACK 36 AUDIO
    TITLE "18:cjc171_10358"
    INDEX 01 00:41:64
  TRACK 37 AUDIO
    TITLE "0:"
    INDEX 01 00:43:57
  TRACK 38 AUDIO
    TITLE "16:cjc171_10359"
    INDEX 01 00:44:57
  TRACK 39 AUDIO
    TITLE "0:"
    INDEX 01 00:45:74
  TRACK 40 AUDIO
    TITLE "17:cjc171_10360"
    INDEX 01 00:46:22
  TRACK 41 AUDIO
    TITLE "0:"
    INDEX 01 00:48:43
  TRACK 42 AUDIO
    TITLE "18:cjc171_10361"
    INDEX 01 00:49:13
  TRACK 43 AUDIO
    TITLE "0:"
    INDEX 01 00:51:33
  TRACK 44 AUDIO
    TITLE "16:cjc171_10362"
    INDEX 01 00:52:27
  TRACK 45 AUDIO
    TITLE "0:"
    INDEX 01 00:53:34
  TRACK 46 AUDIO
    TITLE "17:cjc171_10363"
    INDEX 01 00:53:52
  TRACK 47 AUDIO
    TITLE "0:"
    INDEX 01 00:55:41
  TRACK 48 AUDIO
    TITLE "18:cjc171_10364"
    INDEX 01 00:56:15
  TRACK 49 AUDIO
    TITLE "0:"
    INDEX 01 00:58:02
  TRACK 50 AUDIO
    TITLE "16:cjc171_10365"
    INDEX 01 00:59:07
  TRACK 51 AUDIO
    TITLE "0:"
    INDEX 01 01:00:09
  TRACK 52 AUDIO
    TITLE "17:cjc171_10366"
    INDEX 01 01:00:38
  TRACK 53 AUDIO
    TITLE "0:"
    INDEX 01 01:02:04
  TRACK 54 AUDIO
    TITLE "18:cjc171_10367"
    INDEX 01 01:02:56
  TRACK 55 AUDIO
    TITLE "0:"
    INDEX 01 01:04:24
  TRACK 56 AUDIO
    TITLE "16:cjc171_10368"
    INDEX 01 01:05:27
  TRACK 57 AUDIO
    TITLE "0:"
    INDEX 01 01:06:46
  TRACK 58 AUDIO
    TITLE "17:cjc171_10369"
    INDEX 01 01:06:74
  TRACK 59 AUDIO
    TITLE "0:"
    INDEX 01 01:09:37
  TRACK 60 AUDIO
    TITLE "18:cjc171_10370"
    INDEX 01 01:10:15
  TRACK 61 AUDIO
    TITLE "0:"
    INDEX 01 01:12:51
  TRACK 62 AUDIO
    TITLE "16:cjc171_10371"
    INDEX 01 01:13:50
  TRACK 63 AUDIO
    TITLE "0:"
    INDEX 01 01:14:64
  TRACK 64 AUDIO
    TITLE "17:cjc171_10372"
    INDEX 01 01:15:12
  TRACK 65 AUDIO
    TITLE "0:"
    INDEX 01 01:17:60
  TRACK 66 AUDIO
    TITLE "18:cjc171_10373"
    INDEX 01 01:18:44
  TRACK 67 AUDIO
    TITLE "0:"
    INDEX 01 01:21:28
  TRACK 68 AUDIO
    TITLE "16:cjc171_10374"
    INDEX 01 01:22:26
  TRACK 69 AUDIO
    TITLE "0:"
    INDEX 01 01:23:37
  TRACK 70 AUDIO
    TITLE "17:cjc171_10375"
    INDEX 01 01:23:61
  TRACK 71 AUDIO
    TITLE "0:"
    INDEX 01 01:26:10
  TRACK 72 AUDIO
    TITLE "18:cjc171_10376"
    INDEX 01 01:26:63
  TRACK 73 AUDIO
    TITLE "0:"
    INDEX 01 01:29:12
  TRACK 74 AUDIO
    TITLE "16:cjc171_10377"
    INDEX 01 01:30:18
  TRACK 75 AUDIO
    TITLE "0:"
    INDEX 01 01:31:42
  TRACK 76 AUDIO
    TITLE "17:cjc171_10378"
    INDEX 01 01:31:72
  TRACK 77 AUDIO
    TITLE "0:"
    INDEX 01 01:33:65
  TRACK 78 AUDIO
    TITLE "18:cjc171_10379"
    INDEX 01 01:34:43
  TRACK 79 AUDIO
    TITLE "0:"
    INDEX 01 01:36:34
  TRACK 80 AUDIO
    TITLE "16:cjc171_10380"
    INDEX 01 01:37:37
  TRACK 81 AUDIO
    TITLE "0:"
    INDEX 01 01:38:44
  TRACK 82 AUDIO
    TITLE "17:cjc171_10381"
    INDEX 01 01:38:74
  TRACK 83 AUDIO
    TITLE "0:"
    INDEX 01 01:41:74
  TRACK 84 AUDIO
    TITLE "18:cjc171_10382"
    INDEX 01 01:42:52
  TRACK 85 AUDIO
    TITLE "0:"
    INDEX 01 01:45:50
  TRACK 86 AUDIO
    TITLE "16:cjc171_10383"
    INDEX 01 01:46:50
  TRACK 87 AUDIO
    TITLE "0:"
    INDEX 01 01:47:71
  TRACK 88 AUDIO
    TITLE "17:cjc171_10384"
    INDEX 01 01:48:15
  TRACK 89 AUDIO
    TITLE "0:"
    INDEX 01 01:50:34
  TRACK 90 AUDIO
    TITLE "18:cjc171_10385"
    INDEX 01 01:51:06
  TRACK 91 AUDIO
    TITLE "0:"
    INDEX 01 01:53:24
  TRACK 92 AUDIO
    TITLE "16:cjc171_10386"
    INDEX 01 01:54:22
  TRACK 93 AUDIO
    TITLE "0:"
    INDEX 01 01:55:27
  TRACK 94 AUDIO
    TITLE "17:cjc171_10387"
    INDEX 01 01:55:47
  TRACK 95 AUDIO
    TITLE "0:"
    INDEX 01 01:57:58
  TRACK 96 AUDIO
    TITLE "18:cjc171_10388"
    INDEX 01 01:58:30
  TRACK 97 AUDIO
    TITLE "0:"
    INDEX 01 02:00:38
  TRACK 98 AUDIO
    TITLE "16:cjc171_10389"
    INDEX 01 02:01:42
  TRACK 99 AUDIO
    TITLE "0:"
    INDEX 01 02:02:63
  TRACK 100 AUDIO
    TITLE "17:cjc171_10390"
    INDEX 01 02:03:15
  TRACK 101 AUDIO
    TITLE "0:"
    INDEX 01 02:05:08
  TRACK 102 AUDIO
    TITLE "18:cjc171_10391"
    INDEX 01 02:05:63
  TRACK 103 AUDIO
    TITLE "0:"
    INDEX 01 02:07:56
  TRACK 104 AUDIO
    TITLE "16:cjc171_10392"
    INDEX 01 02:08:59
  TRACK 105 AUDIO
    TITLE "0:"
    INDEX 01 02:09:63
  TRACK 106 AUDIO
    TITLE "17:cjc171_10393"
    INDEX 01 02:10:17
  TRACK 107 AUDIO
    TITLE "0:"
    INDEX 01 02:12:61
  TRACK 108 AUDIO
    TITLE "18:cjc171_10394"
    INDEX 01 02:13:39
  TRACK 109 AUDIO
    TITLE "0:"
    INDEX 01 02:16:10
  TRACK 110 AUDIO
    TITLE "16:cjc171_10395"
    INDEX 01 02:17:07
  TRACK 111 AUDIO
    TITLE "0:"
    INDEX 01 02:18:26
  TRACK 112 AUDIO
    TITLE "17:cjc171_10396"
    INDEX 01 02:18:50
  TRACK 113 AUDIO
    TITLE "0:"
    INDEX 01 02:20:47
  TRACK 114 AUDIO
    TITLE "18:cjc171_10397"
    INDEX 01 02:21:19
  TRACK 115 AUDIO
    TITLE "0:"
    INDEX 01 02:23:18
  TRACK 116 AUDIO
    TITLE "16:cjc171_10398"
    INDEX 01 02:24:15
  TRACK 117 AUDIO
    TITLE "0:"
    INDEX 01 02:25:40
  TRACK 118 AUDIO
    TITLE "17:cjc171_10399"
    INDEX 01 02:25:62
  TRACK 119 AUDIO
    TITLE "0:"
    INDEX 01 02:28:17
  TRACK 120 AUDIO
    TITLE "18:cjc171_10400"
    INDEX 01 02:28:70
  TRACK 121 AUDIO
    TITLE "0:"
    INDEX 01 02:31:25
